<svg width="28" height="28" viewBox="0 0 28 28" fill="none" xmlns="http://www.w3.org/2000/svg">
<g clip-path="url(#clip0_2063_434)">
<path d="M27.2192 8.66732C27.1182 3.93644 24.065 0.880797 19.3328 0.779997C18.2077 0.674437 9.79177 0.672757 8.66589 0.779997C3.93557 0.881637 0.879925 3.9342 0.779125 8.66732C0.673565 9.79096 0.671605 18.2103 0.779125 19.335C0.872085 24.0542 3.94593 27.1305 8.66589 27.2221C10.0485 27.2854 10.508 27.3002 13.9993 27.3002C17.4909 27.3002 17.9501 27.2854 19.3328 27.2221C20.6227 27.1636 21.6274 26.9704 22.5908 26.596C25.6143 25.4348 27.152 22.5746 27.2192 19.335C27.3251 18.2117 27.327 9.79124 27.2192 8.66732ZM26.4061 19.2978C26.3244 23.6031 23.603 26.3283 19.2955 26.4087C18.1968 26.5131 9.80241 26.5148 8.70285 26.4087C4.39785 26.3272 1.67317 23.6059 1.59253 19.2978C1.53009 17.9294 1.51525 17.4744 1.51525 14.001C1.61325 8.47916 0.872925 4.2996 5.70265 2.16516C6.57961 1.8244 7.50501 1.648 8.70285 1.59312C10.0712 1.53096 10.5265 1.5164 13.9993 1.5164C17.4722 1.5164 17.9274 1.53096 19.2958 1.5934C20.4936 1.648 21.419 1.8244 22.2963 2.16544C27.1198 4.2912 26.3879 8.48504 26.4834 14.001C26.4831 17.4747 26.4683 17.93 26.4061 19.2978Z" fill="white"/>
<path d="M20.8845 8.94873C21.888 8.94873 22.7045 8.12917 22.7045 7.12173C22.6191 4.70393 19.1496 4.70449 19.0645 7.12173C19.0645 8.12917 19.8812 8.94873 20.8845 8.94873ZM20.8845 6.05633C22.2875 6.10113 22.2873 8.14317 20.8845 8.18769C19.4814 8.14289 19.4819 6.10085 20.8845 6.05633Z" fill="white"/>
<path d="M24.5295 18.8087C24.2976 18.7995 24.1145 18.9725 24.1044 19.1968C23.9474 22.4686 22.4902 23.9417 19.2086 24.0931C18.1606 24.1948 9.87623 24.1956 8.82763 24.0931C4.12111 23.9657 3.74479 20.6886 3.91391 16.6597C3.92147 15.5347 3.94163 12.6479 3.93211 11.1473C3.92987 10.6209 3.12459 10.6064 3.11787 11.1473C3.13187 12.6529 3.10891 15.5246 3.09967 16.6513C3.04675 18.3386 3.08679 20.6696 3.58967 21.7563C5.32091 25.7065 9.07963 24.8298 14.0183 24.9819C20.0654 24.9138 24.4735 25.6782 24.9181 19.2337C24.9276 19.0092 24.7538 18.8188 24.5295 18.8087Z" fill="white"/>
<path d="M24.391 6.25527C22.711 2.33751 18.8521 3.16351 13.9624 3.02995C8.01216 3.02771 3.37032 2.48899 3.0626 8.77835C3.05252 9.31455 3.83876 9.35011 3.876 8.81531C4.03308 5.54351 5.48992 4.07015 8.7718 3.91895C9.82768 3.81675 18.0961 3.81619 19.1531 3.91895C22.4341 4.06679 23.8918 5.54631 24.0492 8.81531C24.1231 9.67911 24.1648 14.1776 24.0489 16.4915C24.0391 17.0193 24.8343 17.0585 24.8626 16.5159L24.9382 14.0062C24.9382 10.5578 24.925 10.1476 24.8623 8.77835C24.8024 7.46095 24.5789 6.73771 24.391 6.25527Z" fill="white"/>
<path d="M7 13.9998C7 17.8596 10.1483 20.9998 14.0182 20.9998C23.3288 20.615 23.326 7.38308 14.0182 6.99976C10.1483 6.99976 7 10.14 7 13.9998ZM20.223 13.9998C20.223 17.4121 17.4395 20.1886 14.0182 20.1886C5.7862 19.8484 5.78872 8.14944 14.0182 7.81064C17.4395 7.81092 20.223 10.5874 20.223 13.9998Z" fill="white"/>
<path d="M14.0129 18.6196C20.1578 18.3657 20.1561 9.63248 14.0129 9.37964C11.4587 9.37964 9.38086 11.4522 9.38086 13.9996C9.38086 16.5471 11.4587 18.6196 14.0129 18.6196ZM14.0129 10.1793C16.1249 10.1793 17.843 11.8932 17.843 13.9996C17.843 16.1061 16.1249 17.8202 14.0129 17.8202C8.93146 17.61 8.93286 10.3885 14.0129 10.1793Z" fill="white"/>
</g>
<defs>
<clipPath id="clip0_2063_434">
<rect width="28" height="28" fill="white"/>
</clipPath>
</defs>
</svg>
