<svg width="14" height="26" viewBox="0 0 14 26" fill="none" xmlns="http://www.w3.org/2000/svg">
<g opacity="0.8">
<path d="M8.29669 14.1991V25.5H4.54701V14.1991V13.6991H4.04701H0.576172V10.1002H4.04701H4.54701V9.60021V6.209C4.54701 4.34445 5.11413 2.96366 6.0395 2.04911C6.96636 1.1331 8.3081 0.629963 9.962 0.629883C9.96213 0.629883 9.96227 0.629883 9.9624 0.629883L13.0111 0.634734L13.0109 3.92436L11.0757 3.92521C11.0756 3.92521 11.0755 3.92521 11.0755 3.92521C10.0543 3.92525 9.30575 4.16731 8.83768 4.72333C8.38582 5.26008 8.29669 5.97698 8.29669 6.66415V9.60021V10.1002H8.79669H12.8502L12.8489 13.6991H8.79669H8.29669V14.1991Z" stroke="white"/>
</g>
</svg>
