<svg width="49" height="48" viewBox="0 0 49 48" fill="none" xmlns="http://www.w3.org/2000/svg">
<path d="M38.9601 30.52L33.8801 29.94C33.2828 29.8699 32.6773 29.936 32.1092 30.1334C31.5411 30.3309 31.0251 30.6545 30.6001 31.08L26.9201 34.76C21.2425 31.8725 16.6276 27.2576 13.7401 21.58L17.4401 17.88C18.3001 17.02 18.7201 15.82 18.5801 14.6L18.0001 9.56002C17.8867 8.58437 17.4185 7.68449 16.6846 7.03172C15.9506 6.37894 15.0023 6.01886 14.0201 6.02002H10.5601C8.30008 6.02002 6.42008 7.90002 6.56008 10.16C7.62008 27.24 21.2801 40.88 38.3401 41.94C40.6001 42.08 42.4801 40.2 42.4801 37.94V34.48C42.5001 32.46 40.9801 30.76 38.9601 30.52Z" fill="white"/>
</svg>
