<svg width="80" height="80" viewBox="0 0 80 80" fill="none" xmlns="http://www.w3.org/2000/svg">
<path d="M79.8047 36.1883C79.3359 29.3883 78.3469 22.682 75.8594 16.2805C74.625 13.1024 73.0953 10.0883 70.4563 7.79766C68.0953 5.74922 65.3125 4.44922 62.3859 3.43829C60.7812 2.68204 59.0469 2.27891 57.325 1.87579C50.2875 0.263287 43.1562 -0.242963 35.9484 0.105474C30.0906 0.386724 24.3172 1.1711 18.7188 2.96954C15.5766 3.97422 12.5687 5.2711 9.94844 7.34454C7.8125 9.01641 6.34844 11.2148 5.175 13.6242C3.20312 17.6773 2.06719 21.9914 1.26719 26.407C0.533899 30.4233 0.110256 34.4899 0 38.5711C0 38.7461 0.0625 46.8914 0.15625 48.0711C0.6625 54.5289 1.67187 60.8695 4.4375 66.8117C4.73281 67.4461 5.02031 68.0898 5.47969 68.632C6.8625 71.1852 8.92812 73.032 11.4484 74.4133C15.4234 76.6008 19.7297 77.7664 24.1531 78.6086C27.4833 79.2346 30.85 79.6474 34.2328 79.8445C38.5276 80.0796 42.8331 80.0337 47.1219 79.707C53.15 79.2086 59.0531 78.1773 64.7781 76.1242C71.0281 73.882 74.9563 69.5914 76.975 63.3539C78.5578 58.4664 79.4187 53.4633 79.775 48.3539C80.0649 44.3042 80.0748 40.2393 79.8047 36.1883Z" fill="#FF9F40"/>
<path d="M79.8051 36.1883C79.3363 29.3883 78.3473 22.682 75.8598 16.2805C74.6254 13.1023 73.0957 10.0883 70.4566 7.79766C70.0889 7.47891 69.7129 7.17786 69.3285 6.89453C69.3691 7.81953 69.3895 8.75026 69.3895 9.68672C69.3895 42.2914 44.8582 68.7211 14.5879 68.7211C11.3451 68.7248 8.10923 68.4208 4.92383 67.8133C5.08077 68.1066 5.26659 68.3835 5.47852 68.6398C6.86133 71.193 8.92695 73.0398 11.4473 74.4211C15.4223 76.6086 19.7285 77.7742 24.152 78.6164C27.4828 79.2398 30.8501 79.65 34.2332 79.8445C38.528 80.0796 42.8335 80.0337 47.1223 79.707C53.1504 79.2086 59.0535 78.1773 64.7785 76.1242C71.0285 73.882 74.9566 69.5914 76.9754 63.3539C78.5582 58.4664 79.4191 53.4633 79.7754 48.3539C80.0653 44.3042 80.0752 40.2393 79.8051 36.1883Z" fill="#F49138"/>
<path d="M37.1422 57.8555V29.7602C36.6891 29.9586 36.0625 30.2289 35.1938 30.593C32.7672 31.6117 32.2359 31.8039 32.0359 31.857L31.0547 32.1164V25.9164L31.5109 25.707C31.8687 25.543 33.0578 24.9523 35.0437 23.9523C37.6766 22.6242 38.1688 22.3445 38.2531 22.2852L38.4516 22.1523H38.6969H44.6344V57.8555H37.1422Z" fill="white"/>
<path d="M35.3953 24.6496C33.3974 25.6569 32.2109 26.2465 31.8359 26.4184V31.1059C32.0703 31.0454 33.0891 30.6361 34.8922 29.8777C36.6953 29.1194 37.7057 28.6704 37.9234 28.5309V57.0746H43.8484V22.9277H38.6922C38.4922 23.0684 37.3932 23.6423 35.3953 24.6496Z" fill="white"/>
</svg>
