<svg width="49" height="48" viewBox="0 0 49 48" fill="none" xmlns="http://www.w3.org/2000/svg">
<path d="M24.5 23C23.1739 23 21.9021 22.4732 20.9645 21.5355C20.0268 20.5979 19.5 19.3261 19.5 18C19.5 16.6739 20.0268 15.4021 20.9645 14.4645C21.9021 13.5268 23.1739 13 24.5 13C25.8261 13 27.0979 13.5268 28.0355 14.4645C28.9732 15.4021 29.5 16.6739 29.5 18C29.5 18.6566 29.3707 19.3068 29.1194 19.9134C28.8681 20.52 28.4998 21.0712 28.0355 21.5355C27.5712 21.9998 27.02 22.3681 26.4134 22.6194C25.8068 22.8707 25.1566 23 24.5 23ZM24.5 4C20.787 4 17.226 5.475 14.6005 8.1005C11.975 10.726 10.5 14.287 10.5 18C10.5 28.5 24.5 44 24.5 44C24.5 44 38.5 28.5 38.5 18C38.5 14.287 37.025 10.726 34.3995 8.1005C31.774 5.475 28.213 4 24.5 4Z" fill="white"/>
</svg>
