<svg width="188" height="120" viewBox="0 0 188 120" fill="none" xmlns="http://www.w3.org/2000/svg">
<rect x="1" y="1" width="186" height="62" rx="31" fill="black" fill-opacity="0.2"/>
<rect x="1" y="1" width="186" height="62" rx="31" stroke="white" stroke-width="2"/>
<path d="M73.9463 19.6V42H72.2503V22.096L63.9623 35.856H63.6743L55.3863 22.096V42H53.6903V19.6H55.8023L63.8023 32.848L71.8023 19.6H73.9463ZM81.1988 40.4H92.3988V42H79.5028V19.6H92.2388V21.2H81.1988V29.904H91.4388V31.504H81.1988V40.4ZM111.285 19.6H112.981V42H111.477L98.2613 22.736V42H96.5653V19.6H98.0373L111.285 38.864V19.6ZM132.358 40.208C130.865 41.6373 128.881 42.352 126.406 42.352C123.931 42.352 121.947 41.6373 120.454 40.208C118.961 38.7787 118.214 36.88 118.214 34.512V19.6H119.91V34.512C119.91 36.3893 120.475 37.8933 121.606 39.024C122.737 40.1547 124.337 40.72 126.406 40.72C128.475 40.72 130.075 40.1547 131.206 39.024C132.358 37.8933 132.934 36.3893 132.934 34.512V19.6H134.63V34.512C134.63 36.88 133.873 38.7787 132.358 40.208Z" fill="white"/>
<path d="M77.8574 77.5L94.0004 93.643L110.143 77.5M77.8574 98.357L94.0004 114.5L110.143 98.357" stroke="white" stroke-width="2" stroke-linecap="round" stroke-linejoin="round"/>
</svg>
