<svg width="80" height="80" viewBox="0 0 80 80" fill="none" xmlns="http://www.w3.org/2000/svg">
<path d="M79.8047 36.1883C79.3359 29.3883 78.3469 22.682 75.8594 16.2805C74.625 13.1024 73.0953 10.0883 70.4563 7.79766C68.0953 5.74922 65.3125 4.44922 62.3859 3.43829C60.7812 2.68204 59.0469 2.27891 57.325 1.87579C50.2875 0.263287 43.1562 -0.242963 35.9484 0.105474C30.0906 0.386724 24.3172 1.1711 18.7188 2.96954C15.5766 3.97422 12.5687 5.2711 9.94844 7.34454C7.8125 9.01641 6.34844 11.2148 5.175 13.6242C3.20312 17.6773 2.06719 21.9914 1.26719 26.407C0.533899 30.4233 0.110256 34.4899 0 38.5711C0 38.7461 0.0625 46.8914 0.15625 48.0711C0.6625 54.5289 1.67187 60.8695 4.4375 66.8117C4.73281 67.4461 5.02031 68.0898 5.47969 68.632C6.8625 71.1852 8.92812 73.032 11.4484 74.4133C15.4234 76.6008 19.7297 77.7664 24.1531 78.6086C27.4833 79.2346 30.85 79.6474 34.2328 79.8445C38.5276 80.0796 42.8331 80.0337 47.1219 79.707C53.15 79.2086 59.0531 78.1773 64.7781 76.1242C71.0281 73.882 74.9563 69.5914 76.975 63.3539C78.5578 58.4664 79.4187 53.4633 79.775 48.3539C80.0649 44.3042 80.0748 40.2393 79.8047 36.1883Z" fill="#FF9F40"/>
<path d="M79.8051 36.1883C79.3363 29.3883 78.3473 22.682 75.8598 16.2805C74.6254 13.1023 73.0957 10.0883 70.4566 7.79766C70.0889 7.47891 69.7129 7.17786 69.3285 6.89453C69.3691 7.81953 69.3895 8.75026 69.3895 9.68672C69.3895 42.2914 44.8582 68.7211 14.5879 68.7211C11.3451 68.7248 8.10923 68.4208 4.92383 67.8133C5.08077 68.1066 5.26659 68.3835 5.47852 68.6398C6.86133 71.193 8.92695 73.0398 11.4473 74.4211C15.4223 76.6086 19.7285 77.7742 24.152 78.6164C27.4828 79.2398 30.8501 79.65 34.2332 79.8445C38.528 80.0796 42.8335 80.0337 47.1223 79.707C53.1504 79.2086 59.0535 78.1773 64.7785 76.1242C71.0285 73.882 74.9566 69.5914 76.9754 63.3539C78.5582 58.4664 79.4191 53.4633 79.7754 48.3539C80.0653 44.3042 80.0752 40.2393 79.8051 36.1883Z" fill="#F49138"/>
<path d="M38.8172 58.4754C36.8214 58.4866 34.8345 58.2108 32.9172 57.6566C31.0422 57.1051 29.5359 56.3395 28.425 55.3801L28.0109 55.0223L30.2813 49.0629L31.1234 49.7676C31.8969 50.4145 32.9984 50.9598 34.4047 51.3879C35.8418 51.8241 37.3356 52.0452 38.8375 52.0441C40.4516 52.0441 41.7031 51.6332 42.6656 50.7863C43.6031 49.9676 44.0516 48.9113 44.0516 47.5801C44.0708 46.8293 43.9373 46.0825 43.6594 45.3848C43.4417 44.8453 43.1015 44.3638 42.6656 43.9785C42.1525 43.5785 41.5651 43.2843 40.9375 43.1129C40.1496 42.8699 39.3402 42.7035 38.5203 42.616C37.675 42.5254 36.6359 42.4707 35.4328 42.4598L34.75 42.4473L34.0859 42.4363H33.3047V36.1395H35.3969C36.5299 36.1506 37.6623 36.0828 38.7859 35.9363C39.6543 35.8167 40.5045 35.59 41.3172 35.2613C41.9454 35.0273 42.4831 34.6 42.8531 34.041C43.1984 33.5004 43.3734 32.8066 43.3734 31.9785C43.3806 31.4454 43.2727 30.9171 43.0569 30.4295C42.8412 29.942 42.5228 29.5067 42.1234 29.1535C41.2781 28.3613 40.0406 27.9598 38.4422 27.9598C35.6734 27.9598 33.1766 28.6582 31.0188 30.0379L30.2094 30.5566L27.9531 24.6035L28.5031 24.2645C31.4563 22.4473 34.9969 21.5254 39.0281 21.5254C42.4656 21.5254 45.3203 22.4535 47.5234 24.2816C49.7703 26.1473 50.9094 28.5723 50.9094 31.4879C50.9094 33.5191 50.375 35.2863 49.3188 36.7363C48.6257 37.681 47.7394 38.4672 46.7188 39.0426C48.036 39.6273 49.17 40.5582 50 41.7363C51.2375 43.4723 51.8656 45.5395 51.8656 47.8816C51.8656 50.1176 51.2547 52.0816 50.0516 53.7191C48.8468 55.3484 47.203 56.6009 45.3125 57.3301C43.4016 58.0895 41.2172 58.4754 38.8172 58.4754Z" fill="#FCFCFC"/>
<path d="M44.5074 39.1691C46.3335 38.5598 47.7267 37.5957 48.6871 36.277C49.6475 34.9582 50.1277 33.3619 50.1277 31.4879C50.1277 28.8025 49.0934 26.6009 47.0246 24.8832C44.9559 23.1655 42.2902 22.3066 39.0277 22.3066C35.1246 22.3066 31.7527 23.1811 28.9121 24.9301L30.598 29.3754C32.8897 27.9077 35.5043 27.1738 38.4418 27.1738C40.2533 27.1738 41.6595 27.6426 42.6605 28.5801C43.1379 29.0065 43.5186 29.53 43.7771 30.1156C44.0355 30.7012 44.1657 31.3353 44.159 31.9754C44.159 32.9598 43.9444 33.7874 43.5152 34.4582C43.0589 35.1525 42.3951 35.6851 41.6184 35.9801C40.7478 36.3345 39.8367 36.5796 38.9059 36.7098C37.7451 36.862 36.575 36.9325 35.4043 36.9207H34.0934V41.652L34.773 41.6629L35.4512 41.6754C36.6845 41.691 37.7382 41.7431 38.6121 41.8316C39.4818 41.924 40.3405 42.1004 41.1762 42.3582C41.9052 42.5606 42.5863 42.907 43.1793 43.377C43.7041 43.8408 44.1134 44.4208 44.3746 45.0707C44.695 45.8644 44.8503 46.715 44.8309 47.5707C44.8309 49.1332 44.2803 50.3978 43.1793 51.3645C42.0783 52.3311 40.6303 52.815 38.8355 52.816C37.2568 52.8183 35.6864 52.5855 34.1762 52.1254C32.6626 51.665 31.4762 51.0754 30.6168 50.3566L28.9309 54.7832C29.96 55.6738 31.3611 56.3806 33.134 56.9035C34.9794 57.4352 36.8917 57.6983 38.8121 57.6848C41.1236 57.6848 43.1923 57.3202 45.0184 56.591C46.7756 55.918 48.3031 54.7554 49.4199 53.241C50.5355 51.7441 51.0934 49.9577 51.0934 47.8816C51.0934 45.6941 50.5204 43.7967 49.3746 42.1895C48.2288 40.5822 46.6064 39.5754 44.5074 39.1691Z" fill="#FCFCFC"/>
</svg>
