<svg width="80" height="80" viewBox="0 0 80 80" fill="none" xmlns="http://www.w3.org/2000/svg">
<path d="M79.8047 36.1883C79.3359 29.3883 78.3469 22.682 75.8594 16.2805C74.625 13.1024 73.0953 10.0883 70.4563 7.79766C68.0953 5.74922 65.3125 4.44922 62.3859 3.43829C60.7812 2.68204 59.0469 2.27891 57.325 1.87579C50.2875 0.263287 43.1562 -0.242963 35.9484 0.105474C30.0906 0.386724 24.3172 1.1711 18.7188 2.96954C15.5766 3.97422 12.5687 5.2711 9.94844 7.34454C7.8125 9.01641 6.34844 11.2148 5.175 13.6242C3.20312 17.6773 2.06719 21.9914 1.26719 26.407C0.533899 30.4233 0.110256 34.4899 0 38.5711C0 38.7461 0.0625 46.8914 0.15625 48.0711C0.6625 54.5289 1.67187 60.8695 4.4375 66.8117C4.73281 67.4461 5.02031 68.0898 5.47969 68.632C6.8625 71.1852 8.92812 73.032 11.4484 74.4133C15.4234 76.6008 19.7297 77.7664 24.1531 78.6086C27.4833 79.2346 30.85 79.6474 34.2328 79.8445C38.5276 80.0796 42.8331 80.0337 47.1219 79.707C53.15 79.2086 59.0531 78.1773 64.7781 76.1242C71.0281 73.882 74.9563 69.5914 76.975 63.3539C78.5578 58.4664 79.4187 53.4633 79.775 48.3539C80.0649 44.3042 80.0748 40.2393 79.8047 36.1883Z" fill="#FF9F40"/>
<path d="M79.8051 36.1883C79.3363 29.3883 78.3473 22.682 75.8598 16.2805C74.6254 13.1023 73.0957 10.0883 70.4566 7.79766C70.0889 7.47891 69.7129 7.17786 69.3285 6.89453C69.3691 7.81953 69.3895 8.75026 69.3895 9.68672C69.3895 42.2914 44.8582 68.7211 14.5879 68.7211C11.3451 68.7248 8.10923 68.4208 4.92383 67.8133C5.08077 68.1066 5.26659 68.3835 5.47852 68.6398C6.86133 71.193 8.92695 73.0398 11.4473 74.4211C15.4223 76.6086 19.7285 77.7742 24.152 78.6164C27.4828 79.2398 30.8501 79.65 34.2332 79.8445C38.528 80.0796 42.8335 80.0337 47.1223 79.707C53.1504 79.2086 59.0535 78.1773 64.7785 76.1242C71.0285 73.882 74.9566 69.5914 76.9754 63.3539C78.5582 58.4664 79.4191 53.4633 79.7754 48.3539C80.0653 44.3042 80.0752 40.2393 79.8051 36.1883Z" fill="#F49138"/>
<path d="M28.9246 58.2285L28.7496 52.1035L39.8105 39.5832C41.0965 38.2082 42.0434 36.927 42.623 35.7926C43.1753 34.7181 43.4629 33.5272 43.4621 32.3191C43.4621 31.0535 43.0715 30.0816 42.2652 29.3504C41.459 28.6191 40.3621 28.2301 38.9746 28.2301C37.6001 28.2348 36.2381 28.4911 34.9559 28.9863C33.6402 29.4895 32.5512 30.1207 31.7215 30.8613L30.873 31.6223L28.5293 25.4129L28.9355 25.0566C31.4137 22.8691 34.9121 21.7754 39.334 21.7754C42.8762 21.7754 45.7809 22.6895 47.9684 24.4941C50.1996 26.3363 51.3309 28.9551 51.3309 32.2754C51.3241 34.6179 50.6844 36.915 49.4793 38.9238C48.2902 40.9551 46.6496 43.0566 44.6043 45.1738L38.123 52.0488H51.0074L50.4434 58.2238L28.9246 58.2285Z" fill="white"/>
<path d="M48.8039 38.5254C49.9398 36.6381 50.543 34.4782 50.5492 32.2754C50.5492 29.1837 49.5227 26.791 47.4695 25.0973C45.4164 23.4035 42.7039 22.5566 39.332 22.5566C35.0852 22.5566 31.7909 23.5868 29.4492 25.6473L31.207 30.2848C32.1122 29.4723 33.2711 28.7952 34.6836 28.2535C36.0543 27.7234 37.5108 27.4495 38.9805 27.4457C40.5576 27.4457 41.8299 27.8868 42.7977 28.7691C43.7654 29.6514 44.2492 30.8342 44.2492 32.3176C44.252 33.6493 43.9348 34.9622 43.3242 36.1457C42.7076 37.3572 41.7279 38.6806 40.3852 40.116L29.543 52.3879L29.6836 57.4457H49.7289L50.1508 52.8332H36.3117L44.0383 44.6363C46.0529 42.5457 47.6414 40.5087 48.8039 38.5254Z" fill="white"/>
</svg>
