<svg width="49" height="48" viewBox="0 0 49 48" fill="none" xmlns="http://www.w3.org/2000/svg">
<path d="M44.668 15.0703V34.0003C44.668 35.5307 44.0833 37.0033 43.0334 38.1168C41.9835 39.2303 40.5478 39.9005 39.02 39.9903L38.668 40.0003H10.668C9.13755 40.0004 7.66494 39.4157 6.55145 38.3657C5.43795 37.3158 4.76775 35.8801 4.67797 34.3523L4.66797 34.0003V15.0703L23.558 27.6643L23.79 27.7963C24.0634 27.9299 24.3637 27.9993 24.668 27.9993C24.9723 27.9993 25.2726 27.9299 25.546 27.7963L25.778 27.6643L44.668 15.0703Z" fill="white"/>
<path d="M38.6666 8C40.8266 8 42.7206 9.14 43.7766 10.854L24.6666 23.594L5.55664 10.854C6.05823 10.0396 6.74722 9.357 7.56618 8.86298C8.38515 8.36896 9.31035 8.07787 10.2646 8.014L10.6666 8H38.6666Z" fill="white"/>
</svg>
