<svg width="32" height="32" viewBox="0 0 32 32" fill="none" xmlns="http://www.w3.org/2000/svg">
<path d="M31.6795 22.7846C31.6795 22.8915 31.3589 25.242 30.3439 26.3639C29.1152 27.6994 27.7797 27.8597 27.0852 27.9132H26.8715C22.5443 28.2337 16.0802 28.2871 15.9734 28.2871C15.92 28.2871 9.40241 28.2337 5.12861 27.8063H4.96834C4.22034 27.7529 2.88481 27.5926 1.70954 26.2571C0.641068 25.1352 0.320534 22.7312 0.320534 22.6244C0.320534 22.6244 0 19.8998 0 17.1753V14.6644C0 11.9933 0.320534 9.26874 0.320534 9.21534C0.320534 9.10847 0.641068 6.75793 1.65607 5.63606C2.77794 4.35393 4.11348 4.19366 4.96828 4.08679C5.12854 4.08679 5.23541 4.08679 5.39568 4.03339C7.85308 3.81973 15.6528 3.71286 15.9733 3.71286C16.0267 3.71286 22.5442 3.71286 26.8715 4.19366H27.0317C27.7797 4.24706 29.1152 4.40733 30.2905 5.74293C31.3589 6.8648 31.6795 9.2688 31.6795 9.37567C31.6795 9.37567 32 12.1002 32 14.8247V17.3356C32 20.0067 31.6795 22.7312 31.6795 22.7846ZM30.9315 14.7179C30.9315 12.0467 30.611 9.37567 30.611 9.37567C30.5041 8.788 30.1836 7.07853 29.4891 6.3306C28.5809 5.26213 27.5125 5.15532 26.9249 5.10186H26.7646C22.4908 4.78132 16.0267 4.78133 15.9733 4.78133C15.9199 4.78133 7.90655 4.88819 5.55594 5.15526C5.39568 5.15526 5.23541 5.20866 5.07514 5.20866C4.32721 5.26207 3.2588 5.42233 2.40401 6.38393C1.76294 7.0784 1.389 8.78794 1.33554 9.3756C1.33554 9.42901 1.015 12.1001 1.015 14.7178V17.2287C1.015 19.8998 1.33554 22.5709 1.33554 22.5709C1.38894 23.1586 1.76294 24.868 2.40401 25.616C3.36561 26.6844 4.38061 26.7913 5.02168 26.8447H5.18195C9.45575 27.1652 15.9198 27.2186 15.9732 27.2186C16.0266 27.2186 22.4908 27.1652 26.7645 26.8447H26.9782C27.5659 26.7913 28.6343 26.6844 29.5425 25.616C30.1835 24.868 30.5041 23.1586 30.6109 22.5709C30.6643 22.464 30.9315 19.793 30.9315 17.2287L30.9315 14.7179Z" fill="white"/>
<path d="M22.6508 15.947L12.5006 21.8769C12.3403 21.9837 12.1266 21.9837 11.9664 21.8769C11.8061 21.77 11.6992 21.6098 11.6992 21.3961V9.80346C11.6992 9.58979 11.8061 9.42952 11.9664 9.32266C12.0732 9.26925 12.1266 9.26926 12.2335 9.26926C12.3403 9.26926 12.3938 9.26925 12.5006 9.32266L22.6508 14.9854C22.8111 15.0923 22.918 15.2525 22.918 15.4662C22.918 15.6799 22.811 15.8402 22.6508 15.947ZM12.7677 10.7117V20.4879L21.3152 15.4663L12.7677 10.7117Z" fill="white"/>
</svg>
